<?xml version="1.0" encoding="utf-8"?>
<!-- Generator: Adobe Illustrator 19.0.0, SVG Export Plug-In . SVG Version: 6.00 Build 0)  -->
<svg version="1.1" id="Laag_1" xmlns="http://www.w3.org/2000/svg" xmlns:xlink="http://www.w3.org/1999/xlink" x="0px" y="0px"
	 viewBox="0 0 566.9 566.9" style="enable-background:new 0 0 566.9 566.9;" xml:space="preserve">
<style type="text/css">
	.st0{fill:#1DE9B6;}
</style>
<path class="st0" d="M472.2,268.8L472.2,268.8c0-104.6-84.8-189.4-189.4-189.4c-104.6,0-189.4,84.8-189.4,189.4v0h0v109.4l63.1,36.5
	l126.3,72.9l31.6-18.2V268.8c0,0,0,0,0,0v-31.6h-31.6c-17.4,0-31.5,14.2-31.5,31.6c0,0,0,0,0,0v127.6l-94.7-54.7v-72.9h0
	c0,0,0,0,0,0c0-69.7,56.5-126.3,126.3-126.3c69.7,0,126.3,56.5,126.3,126.3c0,0,0,0,0,0h0v145.8l63.1-36.5L472.2,268.8L472.2,268.8z
	"/>
</svg>
